{"title":"Edward Maya &amp; Mia Martina - Stereo Love [Music Video] 720p [","uid":8910744,"size":92757474,"categoryP":"video","categoryS":"music_videos","magnet":"?xt=urn:btih:389b646771868853358aafe4aebff5b72272accd&amp;dn=Edward+Maya+%26amp%3B+Mia+Martina+-+Stereo+Love+%5BMusic+Video%5D+720p+%5B&amp;tr=udp%3A%2F%2Ftracker.openbittorrent.com%3A80&amp;tr=udp%3A%2F%2Fopen.demonii.com%3A1337&amp;tr=udp%3A%2F%2Ftracker.coppersurfer.tk%3A6969&amp;tr=udp%3A%2F%2Fexodus.desync.com%3A6969","seeders":3,"leechers":0,"uploader":"Sbyky","files":1,"time":1379014068,"description":"[IMG]http://yuq.me/users/18/139/5RTEdmwCZD.png[/IMG]\n\nGeneral\nComplete name                            : Edward Maya &amp; Mia Martina - Stereo Love [Music Video] 720p [Sbyky].MP4\nFormat                                   : MPEG-4\nFormat profile                           : Base Media / Version 2\nCodec ID                                 : mp42\nFile size                                : 88.5 MiB\nDuration                                 : 4mn 14s\nOverall bit rate mode                    : Variable\nOverall bit rate                         : 2 917 Kbps\nEncoded date                             : UTC 2010-09-01 22:32:40\nTagged date                              : UTC 2010-09-01 22:32:40\n\nVideo\nID                                       : 1\nFormat                                   : AVC\nFormat/Info                              : Advanced Video Codec\nFormat profile                           : &lt;a class=&quot;__cf_email__&quot; href=&quot;/cdn-cgi/l/email-protection&quot; data-cfemail=&quot;d69ebfb1be969ae5f8e7&quot;&gt;[email&amp;#160;protected]&lt;/a&gt;&lt;script cf-hash='f9e31' type=&quot;text/javascript&quot;&gt;\n/* &lt;![CDATA[ */!function(){try{var t=&quot;currentScript&quot;in document?document.currentScript:function(){for(var t=document.getElementsByTagName(&quot;script&quot;),e=t.length;e--;)if(t[e].getAttribute(&quot;cf-hash&quot;))return t[e]}();if(t&amp;&amp;t.previousSibling){var e,r,n,i,c=t.previousSibling,a=c.getAttribute(&quot;data-cfemail&quot;);if(a){for(e=&quot;&quot;,r=parseInt(a.substr(0,2),16),n=2;a.length-n;n+=2)i=parseInt(a.substr(n,2),16)^r,e+=String.fromCharCode(i);e=document.createTextNode(e),c.parentNode.replaceChild(e,c)}}}catch(u){}}();/* ]]&gt; */&lt;/script&gt;\nFormat settings, CABAC                   : Yes\nFormat settings, ReFrames                : 1 frame\nFormat settings, GOP                     : M=1, N=30\nCodec ID                                 : avc1\nCodec ID/Info                            : Advanced Video Coding\nDuration                                 : 4mn 14s\nBit rate                                 : 2 783 Kbps\nMaximum bit rate                         : 8 213 Kbps\nWidth                                    : 1 280 pixels\nHeight                                   : 720 pixels\nDisplay aspect ratio                     : 16:9\nFrame rate mode                          : Variable\nFrame rate                               : 23.976 fps\nMinimum frame rate                       : 23.810 fps\nMaximum frame rate                       : 24.390 fps\nColor space                              : YUV\nChroma subsampling                       : 4:2:0\nBit depth                                : 8 bits\nScan type                                : Progressive\nBits/(Pixel*Frame)                       : 0.126\nStream size                              : 84.4 MiB (95%)\nTagged date                              : UTC 2010-09-01 22:34:10\n\nAudio\nID                                       : 2\nFormat                                   : AAC\nFormat/Info                              : Advanced Audio Codec\nFormat profile                           : LC\nCodec ID                                 : 40\nDuration                                 : 4mn 14s\nBit rate mode                            : Variable\nBit rate                                 : 128 Kbps\nMaximum bit rate                         : 246 Kbps\nChannel(s)                               : 2 channels\nChannel positions                        : Front: L R\nSampling rate                            : 44.1 KHz\nCompression mode                         : Lossy\nStream size                              : 3.87 MiB (4%)\nTitle                                    : (C) 2007 Google Inc. v08.13.2007.\nEncoded date                             : UTC 2010-09-01 22:33:32\nTagged date                              : UTC 2010-09-01 22:34:10\n\nShared By Sbyky\n[IMG]http://yuq.me/users/18/139/0aq32UMZvX.gif[/IMG]\n[IMG]http://yuq.me/users/18/139/bQg62viaEG.gif[/IMG]","torrent":{"xt":"urn:btih:389b646771868853358aafe4aebff5b72272accd","amp;dn":"Edward+Maya+%26amp%3B+Mia+Martina+-+Stereo+Love+%5BMusic+Video%5D+720p+%5B","amp;tr":["udp%3A%2F%2Ftracker.openbittorrent.com%3A80","udp%3A%2F%2Fopen.demonii.com%3A1337","udp%3A%2F%2Ftracker.coppersurfer.tk%3A6969","udp%3A%2F%2Fexodus.desync.com%3A6969"],"infoHash":"389b646771868853358aafe4aebff5b72272accd","infoHashBuffer":{"type":"Buffer","data":[56,155,100,103,113,134,136,83,53,138,175,228,174,191,245,183,34,114,172,205]},"announce":[],"urlList":[]}}